<?xml version="1.0" standalone="yes"?>
<svg width="100" height="100">
<path style="fill:#6f1727; stroke:none;" d="M0 0L5 9L11 11L15 7C15 14.154 20.8929 28.3317 29.1235 16.6559C31.4024 13.423 29.8857 7.86649 31 4C36.0776 7.97599 33.4651 10.8415 32 16L45 11L42 1L67 4L71 1L49 0L0 0z"/>
<path style="fill:#735f3a; stroke:none;" d="M69 5L74 5L73 9L77 9L78 16L79 16L80 10L87 10L87 9L80 9L77 0C72.6902 0.104546 69.8086 0.343056 69 5z"/>
<path style="fill:#26221f; stroke:none;" d="M77 0C78.8815 7.65696 84.7422 5.49387 91 5L91 1L100 1L77 0z"/>
<path style="fill:#6d2b2d; stroke:none;" d="M42 1L45 11L30 14C27.406 19.0578 21.884 21.6948 17 18L10 16L3 18C6.42091 28.8323 11.0322 27.3422 21 26L21 25L9 24L10 26L7 20L27 24.5301L69 14L69 8L74 8L74 5L69 5L69 1L67 4L42 1z"/>
<path style="fill:#63556f; stroke:none;" d="M91 1L91 4L96 4L96 7L100 7L100 1L91 1z"/>
<path style="fill:#411222; stroke:none;" d="M0 2L0 28L6 27L3 18L10 16L16 19L15 7L11 11L10 8L5 9L0 2z"/>
<path style="fill:#b14866; stroke:none;" d="M8 3L8 6L11 6L11 3L8 3z"/>
<path style="fill:#a21b2c; stroke:none;" d="M31 4L30 8L34 8L31 14C35.3331 11.3422 35.2166 8.26717 33 4L31 4z"/>
<path style="fill:#5d3325; stroke:none;" d="M79 6L80 9C86.181 7.92138 95.2511 13.39 96 4L79 6z"/>
<path style="fill:#2f222c; stroke:none;" d="M91 20L87 18C87.9622 23.986 90.3492 24.6496 96 24C95.9515 29.8642 92.1078 39.6829 100 41L100 7C93.8353 7.90623 92.7686 14.7024 91 20z"/>
<path style="fill:#c03c4a; stroke:none;" d="M29 8C30.2775 11.8436 32.7225 11.8436 34 8L29 8z"/>
<path style="fill:#957f43; stroke:none;" d="M69 8L75 18C78.3607 15.7569 77.2793 12.7018 77 9L69 8z"/>
<path style="fill:#64a555; stroke:none;" d="M80 10C80.7264 14.9416 83.2888 15.8571 88 16C87.3885 10.6874 85.0008 10.0596 80 10z"/>
<path style="fill:#393d24; stroke:none;" d="M87 10C87.5553 14.7787 83.3899 19.73 88 23L87 18L91 20L94 10L87 10z"/>
<path style="fill:#ac3956; stroke:none;" d="M69 11L47 22C39.8239 18.4489 31.3371 23.7528 24 25L24 28L32 28L32 27L54 23C56.7695 18.2593 61.1671 19.106 66 20C67.9895 17.1972 69.8829 18.1153 73 19L69 11z"/>
<path style="fill:#643233; stroke:none;" d="M70 12L70 13L72 22L54 20L61 40C63.058 39.0717 66.3712 36.1838 68.6975 36.6265C71.0969 37.0832 71.498 40.7161 73.4282 41.9676C80.7074 46.687 78.5198 37.0903 77 34L81 34L74 24C78.1973 20.2745 74.9116 13.0717 70 12z"/>
<path style="fill:#4a7337; stroke:none;" d="M79 14L77 18L81 19L81 21L78 26L82 26L82 30L83 30C83.9483 26.8978 84.7494 26.1343 88 26L86 16L79 14z"/>
<path style="fill:#ce6550; stroke:none;" d="M66 17L67 21L70 18L66 17z"/>
<path style="fill:#dd8d74; stroke:none;" d="M68 18L68 22L72 22L68 18z"/>
<path style="fill:#495549; stroke:none;" d="M75 18L74 24C76.7412 31.9769 82.522 32.9399 90 32L89 24L87 30L82 30L82 26L78 26L81 21L81 19L75 18z"/>
<path style="fill:#da7772; stroke:none;" d="M45 22L48 19L45 22z"/>
<path style="fill:#c57c5c; stroke:none;" d="M7 22L11 21L7 22z"/>
<path style="fill:#ffbd86; stroke:none;" d="M8 21L8 23L11 23L11 21L8 21z"/>
<path style="fill:#b0644a; stroke:none;" d="M11 21C9.39095 23.0173 7.13016 24.3882 10 26L9 24L10 24L21 25L21 26L13 29L24 24L11 21z"/>
<path style="fill:#923321; stroke:none;" d="M35 26L35 27C40.1589 28.7646 42.8387 27.305 46 23L35 26z"/>
<path style="fill:#5d3b3c; stroke:none;" d="M42 28L49 28L51 23L42 28z"/>
<path style="fill:#9c7b50; stroke:none;" d="M48 26L57 34L60 32L60 31C55.8292 29.6513 55.9019 27.0439 56 23L48 26z"/>
<path style="fill:#dacd7f; stroke:none;" d="M52 24L55 27L54 24L52 24z"/>
<path style="fill:#362752; stroke:none;" d="M90 32L94 32L94 38L95 38L96 24C90.6874 24.6115 90.0596 26.9993 90 32z"/>
<path style="fill:#60a670; stroke:none;" d="M83 30L87 30L87 25L83 30z"/>
<path style="fill:#6a2236; stroke:none;" d="M11 31L25 27C20.8143 25.7289 13.6745 27.4709 11 31z"/>
<path style="fill:#51414c; stroke:none;" d="M0 30L5 30L5 31L3 31L3 32C6.47445 31.4235 7.42348 30.4744 8 27L0 30z"/>
<path style="fill:#9d42a2; stroke:none;" d="M8 27L8 33L2 36C7.7301 35.6863 9.79828 33.4322 13 29L8 27z"/>
<path style="fill:#d98177; stroke:none;" d="M32 27L32 28L40 29L32 27z"/>
<path style="fill:#84325a; stroke:none;" d="M10 34C12.9401 33.3721 16.8617 30.971 19.8665 31.7917C26.8872 33.7092 21.2821 40.0735 18 42L15 39L16 43L13 44L13 46C16.8505 48.4072 17.8529 50.5035 18 55L15 58L14 58L7 50L9 55L0 51L0 58L9 58L0 59C0.0665476 64.5838 1.19636 66.6785 7 67L5 62L17 61L16 57L21 56L21 55L19 54L19 53L28 51L29 36L24 29L31 31C26.4698 25.0491 14.1191 29.3284 10 34z"/>
<path style="fill:#0d0000; stroke:none;" d="M32 44L33 44C36.487 36.5468 42.0625 33.0266 49 29L54 34C46.105 20.7848 32.6039 32.3595 32 44z"/>
<path style="fill:#6d369b; stroke:none;" d="M24 29L26 36C29.5265 35.4825 31.0217 34.4644 32 31L24 29z"/>
<path style="fill:#6e6361; stroke:none;" d="M28 45L29 45L29 40L40 30C31.6423 26.8418 27.3006 38.541 28 45z"/>
<path style="fill:#6c4c3f; stroke:none;" d="M33 55L32 55L31 52L26 52L25 55L26 60C29.8453 60.297 31.5625 61.0208 32 65L44 56L40 61L41 67L40 67L39 64L38 64L36 75L37 79L48 78C46.4713 73.5772 41.3762 69.0599 48 67L46 65C48.5039 57.5816 50.2184 50.3327 40 50L40 49L44 49L44 48L40 47C42.3957 40.1641 44.8019 36.2552 52 34L49 29C36.0731 34.2536 33 41.7088 33 55z"/>
<path style="fill:#a07a93; stroke:none;" d="M0 32L5 31L0 32z"/>
<path style="fill:#7d328d; stroke:none;" d="M0 37L9 35L2 36L8 31C3.28933 31.8667 0.433308 31.5827 0 37z"/>
<path style="fill:#5b1c51; stroke:none;" d="M8 38L0 37C0 46.9046 -0.572989 50.8273 9 55L7 50L14 58L15 58L18 55C17.9449 50.3748 17.48 47.8772 13 46L13 44L16 43L15 39L18 42C32.2349 36.1803 13.2422 24.789 8 38z"/>
<path style="fill:#4b3b2c; stroke:none;" d="M52 31L53 35L56 36C55.8657 32.7494 55.1022 31.9483 52 31z"/>
<path style="fill:#c79b8e; stroke:none;" d="M58 32L58 34L60 34L60 32L58 32z"/>
<path style="fill:#876156; stroke:none;" d="M60 32L60 51L61 51L63 49L64 57L74 66L75 66L77 59L71 57L71 52L66 54L67 45L75 48L76 44L71 39L66 37L61 40L60 32z"/>
<path style="fill:#5e6989; stroke:none;" d="M84 35L92 34L86 45L87 45L87 42L92 42L93 48L94 48L94 43L98 43L98 42C94.2534 39.9541 93.5667 37.0977 93 33C89.2946 32.3451 86.3455 31.6941 84 35z"/>
<path style="fill:#384780; stroke:none;" d="M90 32L90 33L93 33L93 37L94 37L94 32L90 32z"/>
<path style="fill:#733b6c; stroke:none;" d="M77 34L80 37C79.3641 40.9933 77.9932 42.3641 74 43L74 44L76 52L71 52L71 57L78 63C72.7291 64.1295 76.4499 67.5429 80 68L80 67L77 64C83.5895 63.4913 88.5696 54.4303 80 53L84 33L77 34z"/>
<path style="fill:#9d8678; stroke:none;" d="M43 40L43 41L43 42L44 47L47 52L48 52L50 49L56 62L49 64L50 59L46 65L48 65C47.2554 69.7677 47.6264 83.5505 52 85L52 84L50 82C55.4725 76.3399 57.9549 61.3149 54 55L56 55L51 50L54 49L50 46L51 40L53 36L56 37C50.742 32.135 46.8755 35.72 43 40z"/>
<path style="fill:#280a08; stroke:none;" d="M56 34L60 41L56 34z"/>
<path style="fill:#709fb3; stroke:none;" d="M85 34L85 36L91 39L92 34L85 34z"/>
<path style="fill:#b38f5b; stroke:none;" d="M66 40C73.3091 38.7817 67.2183 32.691 66 40z"/>
<path style="fill:#876296; stroke:none;" d="M83 35L83 43L88 41L88 40L84 40L85 35L83 35z"/>
<path style="fill:#d6afa0; stroke:none;" d="M53 36L51 40L50 46L56 49L56 55L54 55L57.5 62L53.5 69.3333L50 84C60.4905 82.8599 59.1725 76.3584 59 68C65.3351 66.1469 63 54.3351 63 49L61 51L60 51C59.9457 44.5263 59.0409 39.313 53 36z"/>
<path style="fill:#afd2cb; stroke:none;" d="M84 36L84 40L90 36L84 36z"/>
<path style="fill:#fbda89; stroke:none;" d="M67 37L67 39L69 39L69 37L67 37z"/>
<path style="fill:#916e5b; stroke:none;" d="M43 38L40 47L44 48L44 49L40 49L40 50L47 51L44 47L43 42L43 41L43 40L45 38L43 38z"/>
<path style="fill:#794b55; stroke:none;" d="M94 38L100 43L94 38z"/>
<path style="fill:#c6baa2; stroke:none;" d="M29 40L29 44L31 44L31 40L29 40z"/>
<path style="fill:#512927; stroke:none;" d="M31 40L32 55L33 55L31 40z"/>
<path style="fill:#4d306a; stroke:none;" d="M87 42L87 44L91 44L90 50L93 70L100 73L100 43L99 43C96.9315 48.6062 92.8907 47.5846 92 42L87 42z"/>
<path style="fill:#a550ae; stroke:none;" d="M7 43L7 46L10 46L10 43L7 43z"/>
<path style="fill:#f1a6ad; stroke:none;" d="M17 43L17 45L19 45L19 43L17 43z"/>
<path style="fill:#5b40b5; stroke:none;" d="M82 43L85 54L90 53L91 44L86 45L82 43z"/>
<path style="fill:#92abb2; stroke:none;" d="M94 43L94 48C97.403 47.4125 98.272 46.3506 99 43L94 43z"/>
<path style="fill:#c56779; stroke:none;" d="M28 53L31 44C26.5441 45.7971 27.4804 48.7825 28 53z"/>
<path style="fill:#4a3385; stroke:none;" d="M81 44L80 53L85 54L81 44z"/>
<path style="fill:#72413d; stroke:none;" d="M67 45L66 54L76 52L74 46L67 45z"/>
<path style="fill:#ef607c; stroke:none;" d="M20 46L23 48L20 46z"/>
<path style="fill:#c2988c; stroke:none;" d="M48 49L48 59L49 64L56 62L50 49L48 49z"/>
<path style="fill:#694539; stroke:none;" d="M51 51L56 50L51 51z"/>
<path style="fill:#8860a7; stroke:none;" d="M89 51L89 52L94 55C93.4193 51.5099 92.5602 50.4526 89 51z"/>
<path style="fill:#7c4483; stroke:none;" d="M19 55L27 55L28 52C24.1417 50.3934 20.9573 51.2666 19 55z"/>
<path style="fill:#b2a0c6; stroke:none;" d="M86 53L86 59L92 53L86 53z"/>
<path style="fill:#bf7f75; stroke:none;" d="M63 54L63 59L68 58L68 57L63 54z"/>
<path style="fill:#9b44b9; stroke:none;" d="M85 54C84.447 59.364 82.616 63.1126 77 64L83 68L89 60L86 59L85 54z"/>
<path style="fill:#9f4a74; stroke:none;" d="M16 57L15 62L28 64L31 70L35 63L34 63L32 65C32.4493 60.5716 30.0031 60.1331 26 60C24.9946 53.9799 20.6687 55.5235 16 57z"/>
<path style="fill:#8f5d52; stroke:none;" d="M61.3333 55.6667L61.6667 56.3333L61.3333 55.6667z"/>
<path style="fill:#661947; stroke:none;" d="M0 58L0 59L9 58L0 58z"/>
<path style="fill:#834957; stroke:none;" d="M37 72C31.7159 72 27.5557 65.7771 28 64L22 72L19 71L20 84L25 81L22 75L26 80C35.9634 78.5273 39.147 73.7116 38 64L39 64L40 67L41 67L40 61L44 56C35.454 58.7251 36.5468 65.0066 37 72z"/>
<path style="fill:#f69f98; stroke:none;" d="M19 57L19 60L22 60L22 57L19 57z"/>
<path style="fill:#ffcba8; stroke:none;" d="M64.5995 59.0864C61.6048 61.1183 64.047 67.0957 67.6968 64.9136C71.285 62.7683 68.0589 56.7393 64.5995 59.0864z"/>
<path style="fill:#693774; stroke:none;" d="M89 58L88 69L91 70L81 81L84 79L100 83C99.9993 76.6322 100.032 71.8546 93 70L89 58z"/>
<path style="fill:#bd6b82; stroke:none;" d="M74 60L78 63L74 60z"/>
<path style="fill:#5b3461; stroke:none;" d="M5 62L7 67L0 66L0 79C3.1294 77.1694 3.66069 75.5272 3 72L10 69L13 74L16 66L9 66L9 63L14 63L14 61L5 62z"/>
<path style="fill:#6250a6; stroke:none;" d="M14 61L9 63L9 66L16 66L13 74L10 69L6 70L6 71L9 71C9.80688 76.0041 13.1972 78.7141 18 80L20 71L17 64L21 64L21 63L14 61z"/>
<path style="fill:#9d67d6; stroke:none;" d="M83 68L84 68L88 61C84.2288 62.1903 83.4306 64.1718 83 68z"/>
<path style="fill:#ee9182; stroke:none;" d="M70 62L66 66L68 73C71.8452 70.982 71.8949 68.6794 70 65L70 62z"/>
<path style="fill:#c05b6d; stroke:none;" d="M71 62L70 65C71.3672 68.7494 71.17 70.4837 68 73C68.0015 68.5323 66.1491 66.4803 62 65L59 68L59 73L73 77L78 68L71 62z"/>
<path style="fill:#7743d3; stroke:none;" d="M88 62L87 69L91 68L88 62z"/>
<path style="fill:#8e4da7; stroke:none;" d="M17 64L18 68L19 68L19 65L21 69L26 64L17 64z"/>
<path style="fill:#ad95e9; stroke:none;" d="M19 65L18 70L21 65L19 65z"/>
<path style="fill:#9f4a9d; stroke:none;" d="M31 71L37 72L37 66L31 71z"/>
<path style="fill:#cf649a; stroke:none;" d="M80 77L80 71C84.6272 70.7467 87.6633 70.5888 90 75L91 75L91 70L87 66C83.1609 66.9027 79.028 68.0384 76.1836 70.8889C71.6878 75.3945 74.1282 78.5516 80 77z"/>
<path style="fill:#855f52; stroke:none;" d="M48 78L39 79C41.0556 83.0758 43.5643 83.8559 48 84L47 67C40.6916 69.1114 46 74.1299 48 78z"/>
<path style="fill:#d7bff9; stroke:none;" d="M20 72L23 69L20 72z"/>
<path style="fill:#ab6c81; stroke:none;" d="M80 71L80 77L76 78L76 79L89 77L89 76L83 72L89 72L80 71z"/>
<path style="fill:#6e7796; stroke:none;" d="M3 72L2 80C7.5469 80.3033 15.5786 87.5226 17 79L16 79L13 82L7 71L3 72z"/>
<path style="fill:#a4d6d7; stroke:none;" d="M7 71L9 76L9 71L7 71z"/>
<path style="fill:#d1b77e; stroke:none;" d="M83 72C84.299 76.4408 88.8007 76.5324 90 72L83 72z"/>
<path style="fill:#692440; stroke:none;" d="M59 75L63 74L59 75z"/>
<path style="fill:#000004; stroke:none;" d="M60 74C58.4839 87.4994 41.9699 87.1985 37 76C24.8874 81.686 10.7208 85.5567 7 100L97 100C95.196 83.373 74.4199 75.7587 60 74z"/>
<path style="fill:#db5379; stroke:none;" d="M22 75L22 81L26 81L22 75z"/>
<path style="fill:#f2edd9; stroke:none;" d="M5 76L5 78L7 78L7 76L5 76z"/>
<path style="fill:#bbae9e; stroke:none;" d="M4 77L7 79L7 78L4 77z"/>
<path style="fill:#575eb6; stroke:none;" d="M0 79L0 83L7 82L0 79z"/>
<path style="fill:#a7d0fc; stroke:none;" d="M13 79L13 81L15 81L15 79L13 79z"/>
<path style="fill:#6a37b0; stroke:none;" d="M84 79L83 82L94 88L100 84L84 79z"/>
<path style="fill:#402b76; stroke:none;" d="M7 80L2 86L10 81L7 80z"/>
<path style="fill:#7dafd2; stroke:none;" d="M15 80L13 81L13 82L15 80z"/>
<path style="fill:#524755; stroke:none;" d="M17 80C14.6305 84.2662 12.141 82.9565 8 82L7 87L8 87L9 84L11 89L21 82L17 80z"/>
<path style="fill:#353338; stroke:none;" d="M0 83L0 100C8.11708 99.9033 14.3784 91.3454 9 84L8 87L0 83z"/>
<path style="fill:#402f28; stroke:none;" d="M44 84L44 85L49 85L44 84z"/>
<path style="fill:#b46cdc; stroke:none;" d="M96 91C99.5762 89.5634 99.8773 87.7136 100 84C94.8921 84.3983 94.1738 86.3879 96 91z"/>
<path style="fill:#8c6c77; stroke:none;" d="M92 88L95 94C96.241 90.7363 95.2305 89.07 92 88z"/>
<path style="fill:#c4a660; stroke:none;" d="M100 97L100 90C95.5594 91.7832 95.5594 95.2168 100 97z"/>
<path style="fill:#423524; stroke:none;" d="M97 96L97 100L98 100L97 96z"/>
<path style="fill:#766241; stroke:none;" d="M98 97L98 100L100 100L100 97L98 97z"/>
</svg>
